# xmcd CD database file
#
# Track frame offsets:
#	150
#	11984
#	30494
#	42859
#	55179
#	69704
#	90394
#	104579
#	118848
#	131467
#	139643
#	153487
#
# Disc length: 2244 seconds
#
# Revision: 0
# Processed by: cddbd v1.5.1PL0 Copyright (c) Steve Scherf et al.
# Submitted via: CDex 1.50beta10
#
DISCID=a108c20c
DTITLE=Jim Whitaker - Common Ground
DYEAR=2004
DGENRE=Country
TTITLE0=Red Top Mountain
TTITLE1=Another Angel In Heaven
TTITLE2=Far Cry
TTITLE3=Oklahoma Blue
TTITLE4=It's Odd, I'm Even
TTITLE5=Bringin' Back The Blues
TTITLE6=In Her Golden Years
TTITLE7=Love Is Common Ground
TTITLE8=The Kid Nobody Wanted
TTITLE9=Mama's Song
TTITLE10=Mickey And Me
TTITLE11=When I Pray
EXTD=YEAR: 2004
EXTT0=
EXTT1=
EXTT2=
EXTT3=
EXTT4=
EXTT5=
EXTT6=
EXTT7=
EXTT8=
EXTT9=
EXTT10=
EXTT11=
PLAYORDER=
